# File created by Blade
# Date/Time:  Wed Sep 24 20:15:16 2014
# Frame Rate: 120.000 fps
#------------------------------------------------------
:FULLY-SPECIFIED
:DEGREES
3084
root -6.009953 32.754021 -4.787066 16.895406 -1.154596 -2.645322
Spine -21.042746 -2.155905 2.640316
Head -0.077060 -11.380432 9.388480
LeftShoulder -5.917789 19.391645 11.692645
LeftArm 20.971087 27.383919 -75.947748
LeftForeArm -2.806247 -0.000000 20.323669
LeftHand -22.541929 0.000000 -4.596647
LeftHandThumb1 -26.253704 0.000000 33.147579
RightShoulder -21.284444 13.040410 -12.562929
RightArm -35.652563 49.255072 59.048844
RightForeArm 48.528723 -0.000000 86.412222
RightHand -1.917171 -0.000000 -34.273891
RightHandThumb1 -24.326973 -0.000000 -32.862282
LeftUpLeg -12.459889 9.314376 4.020494
LeftLeg 0.300609 -0.000000 -0.000000
LeftFoot -13.475182 8.660644 -18.540229
LeftToeBase 9.422224 -0.000000 -0.000000
RightUpLeg -14.475187 -4.208841 -1.007598
RightLeg 3.307444 -0.000000 -0.000000
RightFoot -8.832312 -0.930023 -12.659182
RightToeBase -0.557393 -0.000000 0.000000
3085
root -6.009922 32.754257 -4.788191 16.902444 -1.099432 -2.641667
Spine -21.037238 -2.142904 2.616990
Head -0.142942 -11.505652 9.467618
LeftShoulder -5.934190 19.405840 11.672557
LeftArm 20.996953 27.335397 -75.946893
LeftForeArm -2.768470 -0.000000 20.341759
LeftHand -22.553025 -0.000000 -4.655452
LeftHandThumb1 -26.253704 0.000000 33.147579
RightShoulder -21.257167 13.084115 -12.584691
RightArm -35.688563 49.208128 58.961494
RightForeArm 48.654320 0.000000 85.530489
RightHand -2.007691 -0.000000 -34.300127
RightHandThumb1 -24.326973 -0.000000 -32.862282
LeftUpLeg -12.481304 9.290265 4.023624
LeftLeg 0.303689 -0.000000 -0.000000
LeftFoot -13.462653 8.625468 -18.538335
LeftToeBase 9.458415 -0.000000 -0.000000
RightUpLeg -14.474318 -4.238061 -0.999323
RightLeg 3.301255 -0.000000 -0.000000
RightFoot -8.833385 -0.956232 -12.657004
RightToeBase -0.516067 -0.000000 0.000000
3086
root -6.011476 32.754414 -4.788522 16.905890 -1.060365 -2.642340
Spine -21.033462 -2.122766 2.587547
Head -0.192747 -11.641921 9.540603
LeftShoulder -5.940250 19.416060 11.663230
LeftArm 21.002831 27.291229 -75.948424
LeftForeArm -2.745206 0.000000 20.366101
LeftHand -22.575894 -0.000000 -4.618864
LeftHandThumb1 -26.253704 0.000000 33.147579
RightShoulder -21.214935 13.089766 -12.627465
RightArm -35.736053 49.135014 58.925153
RightForeArm 48.648613 -0.000000 84.542579
RightHand -1.853739 -0.000000 -34.187105
RightHandThumb1 -24.326973 -0.000000 -32.862282
LeftUpLeg -12.491268 9.284587 4.030181
LeftLeg 0.301232 -0.000000 -0.000000
LeftFoot -13.453865 8.588747 -18.559546
LeftToeBase 9.482678 -0.000000 -0.000000
RightUpLeg -14.471585 -4.262578 -0.986500
RightLeg 3.297072 -0.000000 -0.000000
RightFoot -8.831308 -0.972302 -12.658217
RightToeBase -0.562156 -0.000000 0.000000
3087
root -6.011666 32.754809 -4.790110 16.912699 -1.013441 -2.639451
Spine -21.028189 -2.109245 2.557509
Head -0.254060 -11.785892 9.601351
LeftShoulder -5.940151 19.415215 11.654483
LeftArm 21.002685 27.240772 -75.961598
LeftForeArm -2.734947 -0.000000 20.379467
LeftHand -22.604060 -0.000000 -4.529374
LeftHandThumb1 -26.253704 0.000000 33.147579
RightShoulder -21.192542 13.103575 -12.617076
RightArm -35.749936 49.150874 58.821203
RightForeArm 48.558123 -0.000000 83.578712
RightHand -2.342236 0.000000 -34.246995
RightHandThumb1 -24.326973 -0.000000 -32.862282
LeftUpLeg -12.513962 9.256141 4.034977
LeftLeg 0.310811 -0.000000 -0.000000
LeftFoot -13.439079 8.586675 -18.538744
LeftToeBase 9.428938 -0.000000 -0.000000
RightUpLeg -14.478916 -4.289503 -0.978151
RightLeg 3.304682 -0.000000 -0.000000
RightFoot -8.812256 -1.006271 -12.688483
RightToeBase -0.594173 -0.000000 0.000000
3088
root -6.013598 32.755041 -4.792102 16.925405 -0.969049 -2.640870
Spine -21.027800 -2.102268 2.532516
Head -0.312697 -11.930301 9.659812
LeftShoulder -5.957343 19.419159 11.640522
LeftArm 21.030034 27.245101 -75.931395
LeftForeArm -2.816599 -0.000000 20.375670
LeftHand -22.571374 -0.000000 -4.293184
LeftHandThumb1 -26.253704 0.000000 33.147579
RightShoulder -21.169815 13.119300 -12.606891
RightArm -35.699107 49.066298 58.823142
RightForeArm 48.942479 0.000000 82.600997
RightHand -2.301953 -0.000000 -34.545059
RightHandThumb1 -24.326973 -0.000000 -32.862282
LeftUpLeg -12.539098 9.225112 4.046189
LeftLeg 0.312563 -0.000000 -0.000000
LeftFoot -13.429040 8.592064 -18.521242
LeftToeBase 9.460055 -0.000000 -0.000000
RightUpLeg -14.495068 -4.313784 -0.963067
RightLeg 3.316452 -0.000000 -0.000000
RightFoot -8.826764 -1.022984 -12.668283
RightToeBase -0.551625 -0.000000 0.000000
3089
root -6.015582 32.754758 -4.792772 16.926853 -0.929483 -2.639504
Spine -21.016375 -2.096937 2.504546
Head -0.367525 -12.053442 9.701250
LeftShoulder -5.971802 19.418435 11.623829
LeftArm 21.027026 27.198822 -75.932083
LeftForeArm -2.856501 -0.000000 20.389569
LeftHand -22.552947 -0.000000 -3.917412
LeftHandThumb1 -26.253704 0.000000 33.147579
RightShoulder -21.146708 13.124520 -12.585512
RightArm -35.665065 48.952911 58.845563
RightForeArm 49.707942 -0.000000 81.706831
RightHand -2.304160 0.000000 -35.191868
RightHandThumb1 -24.326973 -0.000000 -32.862282
LeftUpLeg -12.550785 9.216064 4.052699
LeftLeg 0.315826 -0.000000 -0.000000
LeftFoot -13.423818 8.542911 -18.576173
LeftToeBase 9.448533 -0.000000 -0.000000
RightUpLeg -14.495020 -4.330807 -0.954637
RightLeg 3.322567 -0.000000 -0.000000
RightFoot -8.826271 -1.041831 -12.662315
RightToeBase -0.583197 -0.000000 0.000000
